<svg width="130" height="136" viewBox="0 0 130 136" fill="none" xmlns="http://www.w3.org/2000/svg">
<path d="M51.1599 106.893C51.103 106.757 51.0461 106.614 50.9821 106.479C50.8469 106.171 50.7189 105.857 50.5838 105.55C50.2851 104.856 49.9864 104.17 49.6805 103.477C49.14 102.255 48.5994 101.033 48.0518 99.8179C44.8797 99.2604 41.7147 98.6816 38.5355 98.1456C37.9736 98.0527 37.4046 97.9597 36.8428 97.8668C36.5796 97.824 36.3165 97.7882 36.0533 97.7525C35.9822 97.7453 35.9182 97.7311 35.847 97.7239C35.2354 97.6524 34.6237 97.5881 34.005 97.5381C35.3563 99.0246 36.8214 100.39 38.3221 101.719C39.6948 102.934 41.0959 104.127 42.5113 105.299C43.3434 105.993 44.1756 106.679 45.0219 107.365C45.4558 107.715 45.8825 108.058 46.3164 108.401C46.5013 108.544 46.6862 108.687 46.864 108.837C46.9281 108.887 46.9992 108.944 47.0632 108.994C49.0973 110.552 51.1741 112.153 53.4572 113.34C53.4358 113.254 53.4216 113.175 53.4003 113.089C52.8455 110.988 52.0063 108.966 51.1741 106.965C51.1599 106.929 51.1528 106.915 51.1385 106.886L51.1599 106.893Z" fill="url(#paint0_linear_18116_37)"/>
<path d="M40.4701 36.1906C40.0647 36.8266 39.6948 37.4913 39.3605 38.1702C39.2752 38.3489 39.1898 38.5347 39.1045 38.7134C39.0832 38.7491 39.012 38.9278 38.9622 39.035C38.9338 39.0993 38.9125 39.1636 38.8982 39.1993C38.8342 39.3709 38.7702 39.5352 38.7062 39.7068C38.443 40.4357 38.2155 41.179 38.0305 41.9294C37.8456 42.6512 37.6963 43.3873 37.5753 44.1234C37.5398 44.3521 37.5042 44.5808 37.4687 44.8095C37.4687 44.8381 37.4687 44.8596 37.4615 44.9024C37.4189 45.2884 37.3762 45.6743 37.3477 46.0602C37.2126 47.7111 37.1984 49.3691 37.2766 51.02C37.3122 51.8848 37.3762 52.7424 37.4615 53.6C37.5042 54.0502 37.554 54.5005 37.6109 54.9507C37.6322 55.108 37.6607 55.3438 37.6678 55.3724C37.6891 55.501 37.7034 55.6368 37.7247 55.7655C37.9879 57.5807 38.3364 59.3817 38.7347 61.1755C39.4317 64.2772 40.3065 67.336 41.2809 70.3662C42.9025 69.5515 44.4885 68.6653 46.0177 67.6933C46.9849 67.0787 47.938 66.4355 48.8626 65.7566C49.1186 65.5708 49.3676 65.385 49.6236 65.192C49.7232 65.1134 49.8299 65.0348 49.9295 64.9562C49.9437 64.9419 49.9579 64.9347 49.9721 64.9204C50.4131 64.5702 50.8469 64.22 51.2808 63.8556C53.0802 62.3404 54.7658 60.6967 56.3377 58.9458C56.7502 58.4884 57.1485 58.0167 57.5396 57.545C57.7246 57.3234 57.9095 57.0948 58.0944 56.8661C58.1584 56.7803 58.4216 56.4444 58.4998 56.3443C58.5638 56.2586 58.7061 56.0656 58.7274 56.0442C58.8127 55.9227 58.9052 55.8083 58.9906 55.6868C59.1684 55.451 59.3391 55.208 59.5098 54.965C59.8511 54.479 60.1854 53.9859 60.5126 53.4857C62.5254 50.3983 64.3319 47.1537 65.9749 43.859C67.3902 41.0218 68.5709 38.3203 69.5524 35.3115C69.9578 34.0608 70.3205 32.7959 70.6121 31.5166C70.7472 30.9234 70.8681 30.3231 70.9677 29.7228C71.0033 29.5227 71.0317 29.3154 71.0602 29.1153C71.0602 29.0867 71.1171 28.6865 71.1242 28.5793C71.2309 27.5716 71.2735 26.5568 71.2309 25.5491C71.2095 25.1203 71.1597 24.6986 71.1242 24.2698C71.1811 24.9845 71.1242 24.3484 71.0957 24.1555C71.0602 23.9625 71.0246 23.7767 70.9748 23.5837C70.8824 23.1764 70.7615 22.7833 70.6263 22.3831C70.6121 22.3331 70.5836 22.2759 70.5552 22.2187C70.4698 22.0472 70.3774 21.9114 70.5552 22.2187C70.5765 22.2545 70.5979 22.2902 70.6263 22.3402C70.541 22.1973 70.4841 22.0258 70.4129 21.8757C70.2565 21.5612 70.0716 21.2682 69.8866 20.9752C69.8653 20.9466 69.8582 20.9252 69.844 20.9037C69.78 20.8251 69.7159 20.7465 69.6448 20.6679C69.4172 20.4177 69.1683 20.2033 68.9265 19.9746C68.7985 19.896 68.6704 19.8031 68.5424 19.7245C68.3931 19.6316 68.2437 19.553 68.0872 19.4744C68.073 19.4672 68.0303 19.4458 67.9876 19.4243C67.8952 19.3886 67.7316 19.3171 67.6889 19.2957C67.5396 19.2457 67.3902 19.1957 67.2337 19.1528C66.8995 19.0599 66.5581 19.0098 66.2238 18.9241C66.0531 18.9169 65.8753 18.8955 65.7046 18.8812C64.9578 18.8383 64.2394 18.9384 63.4998 18.967C63.4215 18.9813 63.3433 18.9955 63.258 19.0098C63.0588 19.0456 62.8597 19.0813 62.6605 19.1242C62.248 19.2099 61.8355 19.3171 61.4301 19.4315C60.9749 19.5601 60.5268 19.7031 60.0859 19.8674C59.8654 19.9461 59.652 20.0247 59.4386 20.1104C59.3817 20.1319 59.0688 20.2605 58.955 20.3034C58.8768 20.3391 58.7985 20.3749 58.7701 20.382C58.6563 20.432 58.5496 20.4821 58.4358 20.5321C58.2082 20.6393 57.9877 20.7465 57.7601 20.8537C57.2978 21.0824 56.8426 21.3254 56.3874 21.5755C55.3917 22.1258 54.4244 22.7261 53.4856 23.3622C52.9664 23.7124 52.4614 24.0697 51.9565 24.4414C51.736 24.6057 51.5155 24.7701 51.295 24.9416C51.2595 24.9702 50.8967 25.2632 50.8043 25.3347C49.7659 26.178 48.7559 27.0571 47.7815 27.9718C45.5838 30.0301 43.5355 32.2527 41.6294 34.5897C41.4516 34.8113 41.2809 35.0328 41.0959 35.2472C41.1955 35.1257 41.2524 35.0614 41.288 35.0257C41.2311 35.09 41.1173 35.2329 41.0675 35.3044C40.8612 35.5902 40.655 35.8904 40.4629 36.1906H40.4701Z" fill="url(#paint1_linear_18116_37)"/>
<path d="M1.43761 74.4399C2.14173 74.64 2.84586 74.8258 3.55709 74.9973C4.51725 75.226 5.48453 75.419 6.4518 75.5905C6.96389 75.6762 7.46887 75.7549 7.98095 75.8335C8.05208 75.8406 8.10186 75.8549 8.13031 75.8549C8.16587 75.8549 8.19432 75.8621 8.25833 75.8692C8.50015 75.8978 8.74908 75.9264 8.9909 75.955C13.173 76.4338 17.4048 76.4338 21.5939 76.0121C22.1487 75.955 22.7035 75.8906 23.2582 75.8192C23.2796 75.8192 23.2938 75.8192 23.308 75.8192C23.4076 75.8049 23.5072 75.7906 23.6067 75.7763C23.8699 75.7406 24.133 75.6977 24.3891 75.6548C25.4702 75.4833 26.5512 75.2832 27.6252 75.0545C29.83 74.5828 32.0135 73.9968 34.1543 73.2892C35.0789 72.9819 35.9893 72.646 36.8997 72.2958C35.086 66.7428 33.628 61.0683 32.8883 55.258C32.0348 48.5687 32.3051 41.422 35.463 35.333C36.3236 33.6678 37.4473 32.2027 38.6422 30.7662C40.527 28.4935 42.5397 26.3352 44.709 24.3342C48.315 21.0038 52.3547 17.9807 56.8782 16.0368C60.3419 14.5431 64.1612 13.5783 67.9236 14.3859C71.2878 15.1077 73.8198 17.5162 75.0715 20.6822C76.5864 24.5128 76.0886 28.9867 75.1853 32.8959C73.6988 39.3351 70.7188 45.4599 67.4684 51.1701C64.6946 56.0442 61.551 60.6324 57.5539 64.5845C54.1471 67.9435 50.2637 70.8522 46.1101 73.2035C45.0362 73.8109 43.9409 74.3827 42.8242 74.9187C43.82 77.7059 44.8868 80.4646 46.0034 83.2017C46.2026 83.6877 46.4017 84.1666 46.6009 84.6525C46.6862 84.8669 46.7787 85.0813 46.864 85.2957C46.8925 85.3601 46.9565 85.5101 46.9992 85.6245C47.3477 86.4535 47.7033 87.2825 48.0589 88.1116C48.7772 89.7767 49.5027 91.4348 50.2353 93.0928C50.6051 93.9218 50.975 94.7509 51.3519 95.5799C53.0304 95.8586 54.7089 96.1302 56.3874 96.3732C56.8355 96.4375 57.2836 96.5018 57.7317 96.5661C57.945 96.5947 58.1584 96.6233 58.3718 96.6519C58.4073 96.6519 58.4216 96.6519 58.4429 96.659C58.4713 96.659 58.4927 96.659 58.5425 96.6733C59.4457 96.7948 60.349 96.9092 61.2523 97.0092C63.1228 97.2308 65.0005 97.4166 66.8781 97.5738C70.8112 97.8954 74.7657 98.0598 78.713 98.0026C80.7472 97.974 82.7742 97.8883 84.8012 97.7382C85.8538 97.6596 86.9064 97.5667 87.9519 97.4523C88.4783 97.3952 89.0046 97.3308 89.5309 97.2665C89.6091 97.2594 89.6589 97.2522 89.6945 97.2451C89.73 97.2451 89.7656 97.2379 89.8225 97.2236C90.0714 97.1879 90.3203 97.1522 90.5622 97.1164C94.6589 96.5018 98.72 95.5727 102.653 94.2577C103.642 93.9218 104.623 93.5717 105.598 93.1857C105.861 93.0785 106.131 92.9713 106.394 92.8641C106.501 92.8212 106.615 92.7712 106.721 92.7283C107.184 92.5282 107.646 92.321 108.101 92.1137C110.029 91.2204 111.906 90.227 113.72 89.1192C114.637 88.5547 115.541 87.9686 116.43 87.3469C116.92 87.0038 117.397 86.6608 117.873 86.3034C117.959 86.2391 118.265 86.0033 118.307 85.9747C118.45 85.8603 118.592 85.7531 118.734 85.6388C120.519 84.2094 122.212 82.6586 123.791 81.0006C124.573 80.1858 125.334 79.3425 126.067 78.4706C126.487 77.9703 126.899 77.4701 127.297 76.9555C127.376 76.8626 127.447 76.7625 127.525 76.6696C127.546 76.6411 127.568 76.6125 127.596 76.5696C127.774 76.3337 127.952 76.0979 128.122 75.8549C128.777 74.9616 129.395 74.0468 130 73.1249C129.972 71.1667 129.858 69.187 129.644 67.1859C124.957 24.0483 109.353 6.78893 73.4428 0.514105C39.4886 -5.41768 -6.93359 41.3076 0.868628 72.2887C1.04644 73.0034 1.23847 73.7252 1.43761 74.4399ZM89.8509 56.4373C93.0515 56.4373 95.6333 59.0244 95.6333 62.1761C95.6333 65.3278 93.0515 67.9864 89.8509 67.9864C86.6504 67.9864 84.0686 65.3993 84.0686 62.1761C84.0686 58.9529 86.6433 56.4373 89.8509 56.4373Z" fill="url(#paint2_linear_18116_37)"/>
<path d="M127.681 83.8521C121.465 90.52 113.642 95.4155 105.1 98.4743C97.1055 101.333 88.5565 102.548 80.0999 102.769C72.1626 102.977 64.2466 102.276 56.3946 101.169C55.4913 101.04 54.5951 100.897 53.699 100.754C54.9792 103.634 56.2168 106.543 57.2694 109.502C57.8526 111.145 58.4642 112.946 58.4642 114.712C58.4642 116.77 57.1911 118.621 55.0077 118.685C53.1727 118.742 51.3875 117.72 49.8654 116.799C47.0205 115.062 44.3961 112.954 41.8072 110.867C38.9622 108.573 36.1458 106.221 33.4573 103.741C31.857 102.262 30.2354 100.726 29.0121 98.9103C28.0235 97.438 27.547 95.3655 28.9339 93.9576C30.0221 92.8427 31.6366 92.6712 33.1159 92.6998C37.3264 92.7927 41.5796 93.8004 45.7261 94.5865C43.2937 89.0764 40.9324 83.5376 38.8413 77.8846C38.7133 77.5273 38.5853 77.1699 38.4573 76.8126C32.4474 79.1496 26.0676 80.5289 19.6381 80.972C14.1402 81.3436 8.4717 81.022 3.03789 79.7999C13.4503 111.796 37.9594 139.254 71.4727 135.687C100.982 132.55 125.683 110.724 129.516 81.7867C128.919 82.4942 128.314 83.1875 127.689 83.8592L127.681 83.8521Z" fill="url(#paint3_linear_18116_37)"/>
<defs>
<linearGradient id="paint0_linear_18116_37" x1="127.596" y1="-7.29819e-06" x2="-26.4564" y2="47.813" gradientUnits="userSpaceOnUse">
<stop stop-color="#F983FF"/>
<stop offset="1" stop-color="#FDBD55"/>
</linearGradient>
<linearGradient id="paint1_linear_18116_37" x1="127.596" y1="-7.29819e-06" x2="-26.4564" y2="47.813" gradientUnits="userSpaceOnUse">
<stop stop-color="#F983FF"/>
<stop offset="1" stop-color="#FDBD55"/>
</linearGradient>
<linearGradient id="paint2_linear_18116_37" x1="127.596" y1="-7.29819e-06" x2="-26.4564" y2="47.813" gradientUnits="userSpaceOnUse">
<stop stop-color="#F983FF"/>
<stop offset="1" stop-color="#FDBD55"/>
</linearGradient>
<linearGradient id="paint3_linear_18116_37" x1="127.596" y1="-7.29819e-06" x2="-26.4564" y2="47.813" gradientUnits="userSpaceOnUse">
<stop stop-color="#F983FF"/>
<stop offset="1" stop-color="#FDBD55"/>
</linearGradient>
</defs>
</svg>
