<svg width="170" height="203" viewBox="0 0 170 203" fill="none" xmlns="http://www.w3.org/2000/svg">
<path d="M163.85 116.28C161.87 116.1 159.74 116.03 157.42 116.1C141.49 116.62 126.11 126.46 113.57 142.09C111.79 144.3 110.17 146.28 108.64 148.08C95.72 164.25 74.9 181.49 45.36 182.46C35.34 182.79 26.44 181.52 18.55 179.07C28.1 188.5 39.42 196.08 52.74 200.32C97.39 214.53 146.83 162.82 163.86 116.28H163.85Z" fill="url(#paint0_linear_18110_20437)"/>
<path d="M3.33 57.86C2.66 60.54 2.36 63.2 7.67 63.03L28.9 62.34C69.84 61 71.52 54.12 71.23 45.4C70.92 35.92 62.45 20.64 40.09 21.37C14.68 22.2 6.3 44.48 3.33 57.86Z" fill="url(#paint1_linear_18110_20437)"/>
<path d="M111.24 62.3C111.39 66.85 112.42 75.16 96.88 75.67L5.91 78.64C-0.16 78.84 -0.0699994 81.5 0.0200006 84.53C1.03 115.61 13.35 155.81 51.64 154.56C72.49 153.88 86.88 141.27 96.01 130.72C96.26 130.42 96.55 130.11 96.85 129.8C109.6 111.79 123.3 104.74 131.8 100.32C141.35 95.36 154.38 91.61 169.36 90.71C171.2 42.73 126.36 -11.72 52.72 2.22001C52.59 2.25001 52.46 2.27001 52.32 2.30001C96.11 6.24001 110.57 41.99 111.23 62.31L111.24 62.3Z" fill="url(#paint2_linear_18110_20437)"/>
<defs>
<linearGradient id="paint0_linear_18110_20437" x1="166.282" y1="0.0022169" x2="-38.723" y2="55.6324" gradientUnits="userSpaceOnUse">
<stop stop-color="#F983FF"/>
<stop offset="1" stop-color="#FDBD55"/>
</linearGradient>
<linearGradient id="paint1_linear_18110_20437" x1="166.282" y1="0.0022169" x2="-38.723" y2="55.6324" gradientUnits="userSpaceOnUse">
<stop stop-color="#F983FF"/>
<stop offset="1" stop-color="#FDBD55"/>
</linearGradient>
<linearGradient id="paint2_linear_18110_20437" x1="166.282" y1="0.0022169" x2="-38.723" y2="55.6324" gradientUnits="userSpaceOnUse">
<stop stop-color="#F983FF"/>
<stop offset="1" stop-color="#FDBD55"/>
</linearGradient>
</defs>
</svg>
