<svg width="161" height="112" viewBox="0 0 161 112" fill="none" xmlns="http://www.w3.org/2000/svg">
<path d="M16.35 38.2386C16.25 39.2786 15.1 39.4886 14.27 39.4886C13.02 39.4386 11.36 39.4386 10.12 39.4386C8.88 39.4386 7.21 39.4386 5.97 39.4886C4.62 39.5386 3.94 38.9686 3.94 38.2386C3.94 37.7186 4.1 37.2486 5.03 37.0986C7 36.7886 7.47 35.3286 7.47 33.9286V7.3886C7.47 5.7286 7.57 4.5286 5.24 4.2186C4.41 4.1186 3.84 3.6986 3.84 3.2886C3.83 1.6786 9.44 0.228597 10.64 0.0185966C11.16 -0.0314034 11.73 0.0185966 12.15 0.178597C12.72 0.338597 13.03 0.698597 12.98 1.0086C12.82 2.7186 12.72 4.1786 12.72 5.9386V33.9286C12.72 35.5386 13.14 36.7886 14.95 37.0986C15.94 37.2586 16.35 37.6686 16.35 38.2386Z" fill="black"/>
<path d="M30.94 38.2386C30.94 38.9186 30.32 39.5386 29.02 39.4886C27.72 39.4386 25.96 39.4386 24.71 39.4386C23.46 39.4386 21.85 39.4386 20.61 39.4886C19.26 39.5386 18.53 38.9686 18.53 38.2386C18.53 37.7186 18.74 37.2486 19.67 37.0986C21.64 36.7886 22.06 35.3286 22.06 33.9286V22.9686C22.06 21.3586 22.16 20.1686 19.83 19.8486C19 19.7486 18.43 19.3286 18.43 18.8586C18.43 17.2986 24.09 15.8486 25.23 15.6386C25.75 15.5386 26.32 15.5886 26.74 15.7386C27.31 15.9486 27.62 16.2586 27.57 16.6186C27.41 18.3286 27.31 19.7886 27.31 21.5486V33.9086C27.31 35.5186 27.83 36.7686 29.65 37.0786C30.64 37.2386 30.95 37.6486 30.95 38.2186L30.94 38.2386ZM23.52 11.0286C21.13 11.0286 19.21 9.1086 19.21 6.7186C19.21 4.3286 21.13 2.4586 23.52 2.4586C25.91 2.4586 27.83 4.3786 27.83 6.7186C27.83 9.0586 25.91 11.0286 23.52 11.0286Z" fill="black"/>
<path d="M42.31 16.3686C42.31 16.7886 42.31 17.0986 43.09 17.0986H47.55C48.59 17.0986 48.95 17.5686 48.95 18.1386C48.85 19.0186 48.43 19.1786 47.55 19.1786H43.09C42.31 19.1786 42.31 19.4886 42.31 19.9086V34.4986C42.31 36.3186 42.93 36.9886 45.63 37.1986C46.72 37.2486 47.08 37.7686 47.08 38.3386C47.08 38.9586 46.56 39.5286 45.31 39.5286C43.65 39.5286 42.61 39.4786 40.07 39.4786C37.53 39.4786 36.28 39.5286 34.77 39.5786C33.47 39.5786 32.8 39.0086 32.8 38.3286C32.85 37.4986 33.47 37.2386 34.2 37.1386C36.38 36.8786 37 35.9986 37 34.3886V19.8986C37 19.4786 36.9 19.1686 36.17 19.1686H34.77C33.89 19.1686 33.42 18.9586 33.37 18.0786C33.37 17.6586 33.47 17.2986 34.15 17.1486C36.07 16.6286 37.01 15.7486 37.01 14.4486C37.01 12.6286 37.74 8.6886 39.4 5.7286C40.23 4.2186 44.23 0.0685966 48.02 0.0685966C50.72 0.0685966 51.55 1.3686 51.55 2.6086C51.55 3.5386 50.51 4.8386 48.43 4.8386C46.66 4.8386 46.51 3.7486 45.11 3.7486C42.82 3.7486 42.31 7.8986 42.31 8.9886V16.3686Z" fill="black"/>
<path d="M71.28 34.3386C69.67 36.7786 66.35 40.3586 61.26 40.3586C52.69 40.3586 50.36 32.0986 50.36 28.5186C50.36 24.6786 51.97 15.6386 61.47 15.6386C68.69 15.6386 70.82 21.1986 70.82 24.2086C70.82 24.8286 70.92 25.9786 68.8 25.9786H56.34C55.51 25.9786 55.51 26.3386 55.51 26.7586C55.51 31.0186 57.02 36.5686 62.26 36.5686C65.12 36.5686 67.14 34.9086 68.44 33.5086C68.8 33.0886 69.53 32.6286 70.31 32.8886C71.24 33.0986 71.56 33.9286 71.3 34.3386H71.28ZM56.64 23.8486H59.55C65.16 23.8486 65.42 22.9186 65.42 21.7186C65.42 20.4186 64.33 18.2886 61.27 18.2886C57.79 18.2886 56.54 21.2986 56.08 23.1186C55.98 23.4786 55.92 23.8486 56.65 23.8486H56.64Z" fill="black"/>
<path d="M2.17 93.6686C2.22 93.4086 2.48 93.0986 2.85 92.8886C3.63 92.4186 4.51 91.8986 5.24 91.4386C5.55 91.2286 5.5 90.8686 5.19 90.6586C2.28 88.8386 1.56 86.5086 1.56 84.1186C1.56 78.2486 6.7 75.7086 11.94 75.7086C15.52 75.7086 17.03 77.1086 21.55 77.1086C22.02 77.1086 23.16 77.1086 23.63 77.0586C24.41 77.0086 25.14 77.2186 25.19 78.1486C25.19 78.7186 24.93 79.2386 23.79 79.2386H20.88C20.36 79.2386 20.05 79.4986 20.21 79.7586C21.09 81.1086 21.35 82.7186 21.35 83.7586C21.35 87.1386 19.12 92.2186 11.17 92.2186C10.5 92.2186 9.87 92.2186 9.3 92.1686C8.89 92.1686 8.42 92.2186 8.21 92.4286C7.64 92.8486 7.38 93.4186 7.38 94.1386C7.38 95.3286 7.69 96.2686 10.39 96.2686C12.67 96.2686 14.96 96.3186 17.24 96.3186C23.63 96.3186 25.29 99.6986 25.29 102.449C25.29 106.759 19.84 111.429 10.8 111.429C2.75 111.429 0.21 107.999 0 103.849C0 103.429 0.26 103.019 0.73 102.709C1.82 102.039 4 100.789 4.99 99.7986C5.25 99.4886 5.15 99.0686 4.73 98.8686C2.29 97.5186 1.87 95.4886 2.19 93.6786L2.17 93.6686ZM11.62 108.679C17.07 108.679 20.24 107.539 20.24 104.059C20.24 101.619 18.37 100.219 13.39 100.219H9.34C7.31 100.219 4.98 101.989 4.98 104.109C4.98 106.809 6.69 108.679 11.63 108.679H11.62ZM11.46 89.8286C15.72 89.8286 15.98 85.8286 15.98 84.2686C15.98 82.6086 15.25 78.0386 11.31 78.0386C7.83 78.0386 7.16 82.3486 7.16 83.5986C7.16 84.9486 7.52 89.8286 11.47 89.8286H11.46Z" fill="black"/>
<path d="M46.72 78.5586C46.72 79.5986 45.73 81.3586 43.76 81.3586C41.79 81.3586 41.68 79.5886 40.07 79.5886C37.42 79.5886 35.97 81.8686 35.97 83.7386V93.9686C35.97 96.4086 36.59 97.0286 39.71 97.1886C40.75 97.1886 41.22 97.6086 41.37 98.1186C41.63 98.8986 40.95 99.5186 39.6 99.5186C38.41 99.5186 36.74 99.4186 35.55 99.4186C33.42 99.4686 30.67 99.4186 28.54 99.4686C27.14 99.5186 26.83 98.8986 26.83 98.4786C26.83 97.4886 27.66 97.1786 28.23 97.1286C30.1 96.9186 30.67 95.8286 30.67 93.9586V83.4186C30.67 81.7586 30.77 80.1986 28.49 79.8386C27.71 79.7386 27.04 79.3186 27.04 78.8486C27.04 77.3386 32.7 75.8386 33.84 75.6286C34.36 75.5786 34.93 75.6286 35.35 75.7886C35.92 75.9486 36.23 76.3086 36.18 76.6186C36.13 77.4486 36.08 77.8686 36.02 78.6386C35.97 79.1586 36.49 79.1586 36.64 78.9986C37.94 77.3386 40.53 75.6186 42.72 75.6186C46.04 75.6186 46.72 77.3286 46.72 78.5286V78.5586Z" fill="black"/>
<path d="M60.07 100.369C49.94 100.369 46.88 92.3686 46.88 88.1186C46.88 84.3786 49.74 75.6586 59.29 75.6586C69.78 75.6586 72.69 83.4986 72.69 87.9086C72.69 91.6486 69.57 100.369 60.07 100.369ZM58.62 77.9886C52.65 78.1486 52.6 85.6786 52.75 87.7986C53.01 90.3986 55.03 98.1886 60.95 98.0286C66.77 97.8186 66.97 90.3386 66.77 88.2686C66.51 85.6686 64.64 77.8286 58.62 77.9886Z" fill="black"/>
<path d="M114.12 78.3986C114.07 78.8686 113.5 79.3286 112.67 79.5386C110.91 80.1086 110.33 81.1486 109.66 82.7586L102.49 99.6886C102.28 100.209 101.4 100.359 100.93 100.359C100.15 100.359 99.48 100.099 99.32 99.6886L93.82 87.0686C93.77 86.9086 93.4 86.9086 93.35 87.0686L87.64 99.6886C87.43 100.109 86.76 100.359 85.98 100.359C85.46 100.359 84.58 100.199 84.32 99.6286L77.46 83.0686C77.05 81.9286 76.37 80.1086 74.19 79.5386C73.2 79.2786 72.53 78.7586 72.68 78.1886C72.89 77.5186 73.51 77.0486 74.76 77.0486H83.33C84.58 76.9986 85.2 77.5186 85.1 78.3486C85.05 78.8686 84.27 79.2886 83.33 79.4886C82.55 79.6486 82.19 79.9086 82.08 80.2686C81.98 80.5786 82.03 80.9986 82.18 81.5186L86.7 92.9986C86.75 93.1586 87.17 93.1586 87.22 92.9986L91.27 82.6186C91.69 81.3686 91.27 80.0786 89.14 79.6086C88 79.3486 87.37 78.6186 87.79 77.9486C88.15 77.3786 88.72 77.0186 89.87 77.0686H98.33C99.63 77.0186 100.2 77.5386 100.15 78.4186C100.1 78.8886 99.27 79.4086 98.38 79.6086C97.71 79.7686 97.34 80.0286 97.13 80.2786C96.77 80.7986 97.03 81.4686 97.23 82.2486L101.33 92.9486C101.38 93.1086 101.75 93.1086 101.8 92.9486L106.11 82.0986C106.63 80.9586 106.73 79.8186 105.17 79.4986C104.13 79.3386 103.66 78.9286 103.66 78.3586C103.66 77.3186 104.7 77.0086 105.32 77.0586H112.49C113.53 77.0586 114.2 77.5786 114.1 78.4086L114.12 78.3986Z" fill="black"/>
<path d="M132.03 96.2086C130.32 97.8186 127.31 100.359 124.24 100.359C119.46 100.359 118.53 97.1386 118.53 95.2186V79.6386C118.53 79.3786 118.48 79.1686 118.06 79.1686H116.76C115.67 79.1686 115.05 78.6986 115.05 78.0786C115.05 77.7186 115.15 77.3986 115.67 77.1986C119.05 76.0586 120.45 73.9286 120.97 71.9586C121.13 71.2886 121.8 71.1786 122.37 71.1786C122.89 71.1786 123.77 71.3386 123.77 72.0086V76.5286C123.77 76.7886 123.77 77.0486 124.29 77.0486H130.1C131.19 77.0486 131.66 77.5186 131.66 78.0886C131.56 78.9686 130.88 79.1786 130.1 79.1786H124.29C123.77 79.1786 123.77 79.3886 123.77 79.6486V92.7886C123.77 93.5686 123.61 97.0486 125.74 97.0486C126.83 97.0486 128.49 96.1186 129.58 95.3886C129.94 95.1286 130.46 94.8686 130.93 94.8686C131.14 94.8686 131.29 94.9186 131.45 94.9686C132.02 95.2286 132.33 95.9086 132.02 96.2186L132.03 96.2086Z" fill="black"/>
<path d="M160.07 98.3386C160.07 99.0086 159.4 99.5886 158.1 99.5286C156.8 99.4786 155.14 99.4786 153.84 99.4786C152.54 99.4786 150.72 99.4786 149.48 99.5286C148.13 99.5786 147.66 99.0086 147.66 98.3386C147.66 97.7686 148.08 97.2486 149.06 97.1486C150.72 96.9386 151.19 95.5386 151.19 93.9786V86.9686C151.19 85.1486 151.92 79.5986 147.19 79.5986C145.16 79.5986 142.98 81.4686 141.89 82.7186C141.58 83.0286 141.42 83.3986 141.42 83.7586V93.9886C141.42 95.5986 141.89 96.8486 143.7 97.1586C144.74 97.3186 145.05 97.7286 145.05 98.2986C145.05 98.9786 144.37 99.5986 143.08 99.5486C141.78 99.4986 140.07 99.4986 138.82 99.4986C137.57 99.4986 135.96 99.4986 134.72 99.5486C133.79 99.5486 132.8 99.3386 132.64 98.2986C132.64 97.7786 132.85 97.3086 133.78 97.1586C135.75 96.8486 136.17 95.3886 136.17 93.9886V67.4586C136.17 65.7986 136.35 53.7386 136.35 48.7286C136.35 47.8886 137.72 59.3186 137.72 58.8986C137.72 57.2886 138.14 60.2886 139.34 60.0886C139.86 60.0386 139.36 57.6786 139.77 57.8386C140.34 57.9986 140.35 59.9586 140.3 60.2686C140.14 61.9786 141.67 49.6986 141.67 51.4686L141.42 78.4786C141.42 78.9986 141.89 78.9986 142.04 78.8386C143.86 76.8686 146.19 75.6686 148.95 75.6686C155.23 75.6686 156.48 81.3286 156.48 83.8686V93.9986C156.48 95.5086 156.53 96.7486 158.76 97.1186C159.75 97.3286 160.06 97.7886 160.06 98.3686L160.07 98.3386Z" fill="black"/>
<path d="M73.01 66.8286C71.56 68.5386 68.49 70.3586 65.53 70.3586C63.61 70.3586 62.57 69.3186 62.1 68.3386C62 68.0786 61.37 68.0286 61.11 68.2386C59.55 69.4886 57.27 70.3686 54.31 70.3686C49.69 70.3686 48.13 66.4186 48.13 64.4986C48.13 59.9786 52.65 59.2586 61.32 59.1986C61.68 59.1986 61.79 59.0386 61.79 58.8886V53.1286C61.79 51.6786 61.69 49.0786 57.84 49.0786C55.66 49.0786 52.86 51.2586 54.67 53.3886C55.14 53.9086 54 55.1586 51.92 55.1586C49.06 55.1586 48.54 53.8586 48.54 53.0786C48.54 50.7386 51.6 48.8686 54.56 47.3686C56.12 46.6386 57.78 45.6586 60.01 45.6586C65.36 45.6586 67.07 49.0886 67.07 51.4186V64.1386C67.07 65.6986 67.38 66.6786 68.84 66.6786C69.67 66.6786 70.29 66.3686 70.76 65.9986C71.07 65.7386 71.43 65.4786 71.9 65.4786C72.06 65.4786 72.26 65.4786 72.42 65.5786C73.09 65.8386 73.3 66.5086 72.99 66.8286H73.01ZM61.79 61.6886C61.79 61.5286 61.69 61.3786 61.32 61.3786C56.8 61.3286 53.38 61.3286 53.38 63.9186C53.38 65.2186 53.28 66.8286 56.55 66.8286C58.58 66.8286 61.8 65.1686 61.8 62.9386V61.6886H61.79Z" fill="black"/>
<path d="M82.77 46.3686C82.77 46.7886 82.77 47.0986 83.55 47.0986H88.02C89.06 47.0986 89.42 47.5686 89.42 48.1386C89.32 49.0186 88.9 49.1786 88.02 49.1786H83.55C82.77 49.1786 82.77 49.4886 82.77 49.9086V64.4986C82.77 66.3186 83.39 66.9886 86.09 67.1986C87.18 67.2486 87.55 67.7686 87.55 68.3386C87.55 68.9586 87.03 69.5286 85.78 69.5286C84.12 69.5286 83.08 69.4786 80.53 69.4786C77.98 69.4786 76.74 69.5286 75.23 69.5786C73.93 69.5786 73.26 69.0086 73.26 68.3286C73.31 67.4986 73.93 67.2386 74.66 67.1386C76.84 66.8786 77.46 65.9986 77.46 64.3886V49.8986C77.46 49.4786 77.36 49.1686 76.63 49.1686H75.23C74.35 49.1686 73.88 48.9586 73.83 48.0786C73.83 47.6586 73.93 47.2986 74.61 47.1486C76.53 46.6286 77.47 45.7486 77.47 44.4486C77.47 42.6286 78.2 38.6886 79.86 35.7286C80.69 34.2186 84.69 30.0686 88.48 30.0686C91.18 30.0686 92.01 31.3686 92.01 32.6086C92.01 33.5386 90.97 34.8386 88.89 34.8386C87.12 34.8386 86.97 33.7486 85.57 33.7486C83.28 33.7486 82.77 37.8986 82.77 38.9886V46.3686Z" fill="black"/>
<path d="M107.43 66.2086C105.72 67.8186 102.7 70.3586 99.64 70.3586C94.86 70.3586 93.93 67.1386 93.93 65.2186V49.6386C93.93 49.3786 93.88 49.1686 93.46 49.1686H92.16C91.07 49.1686 90.45 48.6986 90.45 48.0786C90.45 47.7186 90.55 47.3986 91.07 47.1986C94.45 46.0586 95.85 43.9286 96.37 41.9586C96.53 41.2886 97.2 41.1786 97.77 41.1786C98.29 41.1786 99.17 41.3386 99.17 42.0086V46.5286C99.17 46.7886 99.17 47.0486 99.69 47.0486H105.51C106.6 47.0486 107.07 47.5186 107.07 48.0886C106.97 48.9686 106.29 49.1786 105.51 49.1786H99.69C99.17 49.1786 99.17 49.3886 99.17 49.6486V62.7886C99.17 63.5686 99.01 67.0486 101.14 67.0486C102.23 67.0486 103.89 66.1186 104.98 65.3886C105.34 65.1286 105.86 64.8686 106.33 64.8686C106.54 64.8686 106.69 64.9186 106.85 64.9686C107.42 65.2286 107.73 65.9086 107.42 66.2186L107.43 66.2086Z" fill="black"/>
<path d="M130.12 64.3386C128.51 66.7786 125.19 70.3586 120.1 70.3586C111.53 70.3586 109.2 62.0986 109.2 58.5186C109.2 54.6786 110.81 45.6386 120.31 45.6386C127.53 45.6386 129.66 51.1986 129.66 54.2086C129.66 54.8286 129.76 55.9786 127.63 55.9786H115.17C114.34 55.9786 114.34 56.3386 114.34 56.7586C114.34 61.0186 115.85 66.5686 121.09 66.5686C123.95 66.5686 125.97 64.9086 127.27 63.5086C127.63 63.0886 128.36 62.6286 129.14 62.8886C130.07 63.0986 130.39 63.9286 130.13 64.3386H130.12ZM115.48 53.8486H118.39C124 53.8486 124.26 52.9186 124.26 51.7186C124.26 50.4186 123.17 48.2886 120.11 48.2886C116.63 48.2886 115.39 51.2986 114.92 53.1186C114.82 53.4786 114.76 53.8486 115.49 53.8486H115.48Z" fill="black"/>
<path d="M152.34 48.5586C152.34 49.5986 151.35 51.3586 149.38 51.3586C147.41 51.3586 147.3 49.5886 145.69 49.5886C143.04 49.5886 141.59 51.8686 141.59 53.7386V63.9686C141.59 66.4086 135.63 69.7086 138.75 69.8686C139.79 69.8686 140.26 70.2886 140.41 70.7986C140.67 71.5786 139.99 72.1986 138.64 72.1986C137.45 72.1986 142.37 69.4186 141.17 69.4186C139.04 69.4686 140.61 69.5086 138.48 69.5586C137.08 69.6086 136.77 68.9886 136.77 68.5686C136.77 67.5786 137.6 67.2686 138.17 67.2186C140.04 67.0086 136.29 65.8286 136.29 63.9586V53.4186C136.29 51.7586 136.39 50.1986 134.11 49.8386C133.33 49.7386 132.66 49.3186 132.66 48.8486C132.66 47.3386 138.32 45.8386 139.46 45.6286C139.98 45.5786 140.55 45.6286 140.97 45.7886C141.54 45.9486 141.85 46.3086 141.8 46.6186C141.75 47.4486 141.7 47.8686 141.64 48.6386C141.59 49.1586 142.11 49.1586 142.26 48.9986C143.56 47.3386 146.15 45.6186 148.34 45.6186C151.66 45.6186 152.34 47.3286 152.34 48.5286V48.5586Z" fill="black"/>
</svg>
