<svg width="259" height="89" viewBox="0 0 259 89" fill="none" xmlns="http://www.w3.org/2000/svg">
<g clip-path="url(#clip0_12496_9675)">
<path d="M124.276 74.7153C122.118 74.7153 119.965 74.667 117.813 74.667C115.265 74.667 114.971 73.7835 114.971 72.654C114.971 71.9683 115.217 71.4277 115.756 71.0321C115.953 70.8343 116.392 70.786 116.782 70.786C117.321 70.8343 117.909 70.8343 118.545 70.8343C126.038 70.8343 128.143 66.0215 128.143 62.8305C128.143 61.8504 127.897 60.3252 127.064 59.0506C126.92 58.8044 127.209 58.5583 127.7 58.5583H130.445C131.524 58.5583 131.769 58.066 131.769 57.5254C131.721 56.642 131.032 56.4442 130.3 56.4925C129.862 56.5409 128.783 56.5409 128.34 56.5409C124.078 56.5409 122.658 55.2135 119.277 55.2135C114.331 55.2135 109.482 57.6177 109.482 63.1646C109.482 65.4237 110.166 67.6302 112.91 69.3487C113.204 69.5465 113.252 69.8893 112.959 70.0871C112.275 70.531 111.442 71.0189 110.705 71.4628C110.363 71.6606 110.117 71.9551 110.069 72.2012C109.775 73.9198 110.166 75.8361 112.468 77.1108C112.858 77.3086 112.959 77.6997 112.713 77.9942C111.784 78.926 109.727 80.104 108.697 80.7457C108.254 81.0401 108.013 81.4313 108.013 81.8269C108.21 85.7563 110.609 88.9956 118.198 88.9956C126.722 88.9956 131.861 84.5783 131.861 80.5039C131.861 77.9019 130.291 74.7109 124.271 74.7109L124.276 74.7153ZM118.694 57.4331C122.417 57.4331 123.101 61.7537 123.101 63.3228C123.101 64.7952 122.855 68.5751 118.839 68.5751C115.116 68.5751 114.774 63.9601 114.774 62.6855C114.774 61.5075 115.41 57.4331 118.694 57.4331ZM118.988 86.398C114.336 86.398 112.718 84.6311 112.718 82.0774C112.718 80.0644 114.919 78.3942 116.83 78.3942H120.649C125.35 78.3942 127.113 79.7172 127.113 82.0291C127.113 85.3168 124.127 86.398 118.983 86.398H118.988Z" fill="black"/>
<path d="M148.321 55.1739C146.265 55.1739 143.814 56.7958 142.591 58.3649C142.446 58.5143 141.955 58.5143 142.003 58.0221C142.051 57.2837 142.099 56.8925 142.148 56.1057C142.196 55.8112 141.902 55.4684 141.363 55.319C140.968 55.1695 140.433 55.1212 139.942 55.1695C138.864 55.3673 133.527 56.7914 133.527 58.2111C133.527 58.655 134.163 59.0462 134.9 59.1429C137.053 59.4857 136.956 60.9581 136.956 62.5316V72.4957C136.956 74.2626 136.417 75.2955 134.654 75.4889C134.115 75.5373 133.334 75.8317 133.334 76.7635C133.334 77.1547 133.628 77.7481 134.948 77.6953C136.956 77.647 139.552 77.6953 141.56 77.647C142.687 77.647 144.252 77.7437 145.379 77.7437C146.651 77.7437 147.291 77.1547 147.045 76.4163C146.896 75.924 146.458 75.5329 145.476 75.5329C142.538 75.3834 141.95 74.7945 141.95 72.4869V62.8173C141.95 61.0504 143.323 58.8923 145.818 58.8923C147.335 58.8923 147.387 60.5625 149.295 60.5625C151.202 60.5625 152.083 58.8923 152.083 57.9122C152.083 56.7826 151.448 55.1651 148.313 55.1651L148.321 55.1739Z" fill="black"/>
<path d="M163.944 55.1739C154.933 55.1739 152.237 63.4195 152.237 66.9577C152.237 70.9838 155.126 78.5436 164.676 78.5436C173.639 78.5436 176.576 70.2981 176.576 66.7599C176.576 62.5888 173.832 55.1739 163.94 55.1739H163.944ZM165.509 76.3328C159.928 76.4779 158.016 69.1158 157.77 66.6588C157.621 64.6458 157.674 57.5254 163.304 57.3804C168.986 57.2309 170.749 64.6458 170.995 67.1027C171.192 69.0674 170.995 76.135 165.509 76.3328Z" fill="black"/>
<path d="M214.14 56.5013H207.383C206.796 56.453 205.814 56.7474 205.814 57.7276C205.814 58.2682 206.256 58.6594 207.234 58.8088C208.703 59.1033 208.607 60.1846 208.116 61.2614L204.051 71.52C204.003 71.6694 203.661 71.6694 203.612 71.52L199.745 61.4064C199.548 60.668 199.302 60.0307 199.649 59.5428C199.846 59.2967 200.188 59.0506 200.824 58.9055C201.657 58.7077 202.442 58.2199 202.49 57.7759C202.538 56.9408 201.999 56.4486 200.776 56.5013H192.791C191.712 56.453 191.177 56.7958 190.831 57.3364C190.436 57.9737 191.028 58.6638 192.103 58.9055C194.111 59.3495 194.501 60.5757 194.111 61.7537L190.292 71.5727C190.243 71.7222 189.849 71.7222 189.801 71.5727L185.539 60.7252C185.39 60.2329 185.341 59.8417 185.442 59.5472C185.539 59.2044 185.885 58.9583 186.617 58.8088C187.499 58.611 188.235 58.2199 188.284 57.7276C188.38 56.9408 187.792 56.453 186.617 56.5013H178.536C177.361 56.5013 176.774 56.9452 176.576 57.5825C176.432 58.1232 177.067 58.6154 177.997 58.8572C180.053 59.3978 180.689 61.1163 181.079 62.1976L187.547 77.858C187.792 78.3986 188.626 78.5436 189.112 78.5436C189.844 78.5436 190.485 78.2975 190.678 77.9063L196.066 65.9775C196.115 65.8325 196.457 65.8325 196.505 65.9775L201.696 77.9063C201.845 78.2975 202.481 78.5436 203.213 78.5436C203.656 78.5436 204.489 78.3986 204.682 77.9063L211.439 61.9031C212.075 60.3823 212.614 59.3978 214.28 58.8572C215.065 58.6594 215.605 58.2199 215.653 57.7759C215.749 56.9892 215.113 56.5013 214.136 56.5013H214.14Z" fill="black"/>
<path d="M232.012 73.4363C231.867 73.388 231.718 73.3396 231.521 73.3396C231.078 73.3396 230.592 73.5858 230.245 73.8319C229.215 74.5176 227.649 75.401 226.619 75.401C224.611 75.401 224.76 72.1133 224.76 71.3749V58.9539C224.76 58.7077 224.76 58.5099 225.251 58.5099H230.736C231.473 58.5099 232.109 58.3122 232.205 57.4771C232.205 56.9364 231.767 56.4969 230.736 56.4969H225.251C224.76 56.4969 224.76 56.2508 224.76 56.0046V51.7324C224.76 51.0951 223.927 50.9457 223.436 50.9457C222.896 50.9457 222.261 51.0424 222.112 51.6841C221.62 53.5477 220.301 55.5607 217.117 56.642C216.626 56.8397 216.53 57.1342 216.53 57.4771C216.53 58.066 217.117 58.5099 218.148 58.5099H219.371C219.761 58.5099 219.814 58.7077 219.814 58.9539V73.6825C219.814 75.4977 220.695 78.5436 225.198 78.5436C228.088 78.5436 230.929 76.1394 232.543 74.6187C232.836 74.3242 232.543 73.6868 232.003 73.4407L232.012 73.4363Z" fill="black"/>
<path d="M178.988 49.4425C180.409 49.3941 181.632 49.3458 183.982 49.3458C186.332 49.3458 187.363 49.3941 188.928 49.3941C190.103 49.3941 190.594 48.8535 190.594 48.2646C190.594 47.7239 190.252 47.2317 189.222 47.1833C186.674 46.9855 186.087 46.3482 186.087 44.6297V30.8329C186.087 30.4417 186.087 30.1472 186.819 30.1472H191.033C191.866 30.1472 192.256 29.9978 192.357 29.1671C192.357 28.6264 192.015 28.1869 191.033 28.1869H186.819C186.087 28.1869 186.087 27.8924 186.087 27.5013V20.5303C186.087 19.4975 186.578 15.5725 188.731 15.5725C190.051 15.5725 190.2 16.6054 191.866 16.6054C193.826 16.6054 194.804 15.3791 194.804 14.4956C194.804 13.3177 194.019 12.0914 191.471 12.0914C187.898 12.0914 184.127 16.0208 183.342 17.4449C181.772 20.2447 181.088 23.9762 181.088 25.6904C181.088 26.9167 180.207 27.7518 178.396 28.2441C177.76 28.3935 177.659 28.7363 177.659 29.1275C177.708 29.9626 178.15 30.1604 178.984 30.1604H180.303C180.987 30.1604 181.088 30.4549 181.088 30.8461V44.5417C181.088 46.0625 180.501 46.8976 178.444 47.1438C177.76 47.2405 177.173 47.4866 177.124 48.2733C177.124 48.9107 177.76 49.4513 178.988 49.4513V49.4425Z" fill="black"/>
<path d="M193.335 29.1187C193.335 29.7077 193.922 30.1516 194.953 30.1516H196.176C196.566 30.1516 196.619 30.3494 196.619 30.5955V45.3241C196.619 47.1394 197.5 50.1853 202.008 50.1853C204.897 50.1853 207.738 47.7811 209.352 46.2603C209.646 45.9658 209.352 45.3285 208.813 45.0824C208.668 45.034 208.519 44.9857 208.322 44.9857C207.879 44.9857 207.392 45.2318 207.046 45.4779C206.02 46.1636 204.45 47.0471 203.424 47.0471C201.416 47.0471 201.565 43.7594 201.565 43.021V30.5999C201.565 30.3538 201.565 30.156 202.056 30.156H207.541C208.278 30.156 208.914 29.9582 209.01 29.1231C209.01 28.5825 208.567 28.143 207.541 28.143H202.056C201.565 28.143 201.565 27.8968 201.565 27.6507V23.3785C201.565 22.7412 200.732 22.5917 200.241 22.5917C199.701 22.5917 199.066 22.6884 198.916 23.3301C198.425 25.1937 197.106 27.2068 193.922 28.288C193.431 28.4858 193.335 28.7803 193.335 29.1231V29.1187Z" fill="black"/>
<path d="M221.3 50.1809C226.102 50.1809 229.232 46.7921 230.754 44.4846C230.999 44.0934 230.706 43.3067 229.824 43.1089C229.088 42.8628 228.404 43.3067 228.062 43.6979C226.838 45.0252 224.926 46.5943 222.234 46.5943C217.288 46.5943 215.868 41.342 215.868 37.3159C215.868 36.9247 215.868 36.5775 216.653 36.5775H228.408C230.416 36.5775 230.32 35.4963 230.32 34.9073C230.32 32.0592 228.311 26.8068 221.502 26.8068C212.54 26.8068 211.023 35.3468 211.023 38.9817C211.023 42.3705 213.224 50.1765 221.309 50.1765L221.3 50.1809ZM216.403 33.8832C216.845 32.1646 218.021 29.3165 221.3 29.3165C224.19 29.3165 225.22 31.3295 225.22 32.5558C225.22 33.6854 224.975 34.5689 219.687 34.5689H216.942C216.258 34.5689 216.306 34.226 216.403 33.8832Z" fill="black"/>
<path d="M257.772 75.4494C255.668 75.1065 255.619 73.9286 255.619 72.5045V62.9316C255.619 60.5274 254.444 55.1739 248.516 55.1739C245.92 55.1739 243.715 56.3035 242.005 58.1671C241.856 58.3122 241.417 58.3122 241.417 57.8243L241.545 44.3572C241.553 44.2824 241.575 44.2077 241.575 44.1374V41.0255L241.641 33.7777C241.944 32.1866 243.263 30.5384 245.443 30.5384C246.96 30.5384 247.012 32.2086 248.92 32.2086C250.827 32.2086 251.708 30.5384 251.708 29.5582C251.708 28.4287 251.072 26.8112 247.937 26.8112C245.881 26.8112 243.43 28.4331 242.207 30.0022C242.062 30.1516 241.571 30.1516 241.619 29.6593C241.667 28.9209 241.716 28.5298 241.764 27.743C241.812 27.4485 241.518 27.1057 240.979 26.9562C240.589 26.8068 240.049 26.7585 239.558 26.8068C238.48 27.0046 233.143 28.4287 233.143 29.8483C233.143 30.2923 233.779 30.6834 234.516 30.7801C236.669 31.123 236.572 32.5954 236.572 34.1689V37.9796C236.524 42.287 236.463 46.502 236.463 47.4119V72.5001C236.463 73.8275 236.072 75.1988 234.209 75.4933C233.328 75.6383 233.13 76.0823 233.13 76.5745C233.275 77.5591 234.209 77.7525 235.09 77.7525C236.265 77.7041 237.782 77.7041 238.958 77.7041C240.133 77.7041 241.751 77.7041 242.974 77.7525C244.197 77.8008 244.837 77.2119 244.837 76.5745C244.837 76.0339 244.544 75.6427 243.561 75.4933C241.847 75.1988 241.409 74.0209 241.409 72.5001V62.8305C241.409 62.4877 241.553 62.1448 241.847 61.8504C242.873 60.6724 244.934 58.9055 246.841 58.9055C251.296 58.9055 250.612 64.1579 250.612 65.8764V72.5045C250.612 73.9769 250.169 75.3043 248.604 75.4977C247.674 75.5944 247.28 76.0867 247.28 76.6273C247.28 77.2646 247.718 77.8052 248.994 77.7569C250.169 77.7085 251.932 77.7085 253.107 77.7085C254.282 77.7085 255.896 77.7085 257.123 77.7569C258.347 77.8052 258.982 77.2646 258.982 76.6273C258.982 76.0867 258.689 75.6471 257.759 75.4494H257.772Z" fill="black"/>
<path d="M104.154 35.0699C102.44 34.7754 102.05 33.5975 102.05 32.0767V5.61277C102.05 3.94256 102.146 2.57124 102.295 0.94938C102.343 0.654897 102.05 0.312065 101.51 0.162625C101.12 0.0131858 100.581 -0.0351622 100.09 0.0131858C98.9627 0.210973 93.6748 1.5823 93.6748 3.10746C93.6748 3.49864 94.2141 3.89422 94.9946 3.99091C97.2001 4.2854 97.0992 5.41498 97.0992 6.9841V32.0723C97.0992 33.3997 96.6564 34.771 94.7973 35.0655C93.9159 35.215 93.7712 35.6545 93.7712 36.1468C93.7712 36.8324 94.407 37.3731 95.683 37.3247C96.8581 37.2764 98.4234 37.2764 99.5985 37.2764C100.774 37.2764 102.343 37.2764 103.518 37.3247C104.303 37.3247 105.382 37.1269 105.478 36.1468C105.478 35.6061 105.088 35.215 104.154 35.0655V35.0699Z" fill="black"/>
<path d="M113.362 37.2808C114.537 37.2808 116.203 37.2808 117.427 37.3291C118.65 37.3775 119.238 36.7885 119.238 36.1512C119.238 35.6105 118.944 35.2194 118.014 35.0699C116.3 34.7754 115.809 33.5975 115.809 32.0767V20.3941C115.809 18.7239 115.905 17.3482 116.054 15.7307C116.103 15.3879 115.809 15.0934 115.269 14.8956C114.879 14.7506 114.34 14.6978 113.849 14.7989C112.77 14.9967 107.434 16.368 107.434 17.8404C107.434 18.2844 107.973 18.6755 108.758 18.7722C110.959 19.0667 110.863 20.1963 110.863 21.7171V32.0767C110.863 33.4041 110.473 34.7754 108.609 35.0699C107.728 35.2194 107.53 35.6589 107.53 36.1512C107.53 36.8368 108.214 37.3775 109.49 37.3291C110.666 37.2808 112.183 37.2808 113.358 37.2808H113.362Z" fill="black"/>
<path d="M134.47 36.2479C134.47 35.7072 134.128 35.215 133.098 35.1666C130.55 34.9688 129.963 34.3315 129.963 32.613V18.8162C129.963 18.425 129.963 18.1305 130.699 18.1305H134.909C135.742 18.1305 136.132 17.9855 136.233 17.1504C136.233 16.6098 135.891 16.1702 134.909 16.1702H130.699C129.963 16.1702 129.963 15.8757 129.963 15.4846V8.51365C129.963 7.48076 130.454 3.55578 132.607 3.55578C133.926 3.55578 134.075 4.58867 135.742 4.58867C137.702 4.58867 138.679 3.36239 138.679 2.47894C138.679 1.301 137.895 0.0747197 135.351 0.0747197C131.778 0.0747197 128.007 4.0041 127.222 5.42817C125.657 8.22796 124.968 11.9596 124.968 13.6737C124.968 14.9 124.087 15.7351 122.276 16.2274C121.64 16.3724 121.54 16.7196 121.54 17.1108C121.588 17.9459 122.031 18.1437 122.864 18.1437H124.188C124.872 18.1437 124.973 18.4382 124.973 18.8294V32.5251C124.973 34.0458 124.385 34.8809 122.329 35.1271C121.645 35.2238 121.053 35.4699 121.009 36.2567C121.009 36.894 121.645 37.4346 122.868 37.4346C124.289 37.3862 125.512 37.3379 127.862 37.3379C130.213 37.3379 131.243 37.3862 132.808 37.3862C133.983 37.3862 134.474 36.8456 134.474 36.2567L134.47 36.2479Z" fill="black"/>
<path d="M147.839 38.1642C151.658 38.1642 154.416 36.0237 156.152 33.9843C156.358 33.7557 156.578 33.5096 156.815 33.2283C158.498 31.2592 160.524 30.0505 162.585 30.0505C166.207 30.0505 166.307 32.5031 166.307 33.8788V39.329C166.307 39.474 166.211 39.6234 165.865 39.6234C157.687 39.6718 153.425 40.3618 153.425 44.6297C153.425 46.4449 154.894 50.1765 159.252 50.1765C162.045 50.1765 164.198 49.3414 165.667 48.1635C165.913 47.9657 166.5 48.0184 166.597 48.2602C167.035 49.192 168.017 50.1765 169.828 50.1765C172.617 50.1765 175.511 48.4579 176.879 46.8405C177.173 46.546 176.975 45.9087 176.34 45.6625C176.191 45.5659 175.998 45.5659 175.848 45.5659C175.406 45.5659 175.064 45.812 174.77 46.0581C174.327 46.401 173.739 46.6954 172.959 46.6954C171.587 46.6954 171.293 45.7636 171.293 44.2912V32.2657C171.293 30.0549 169.679 26.8156 164.632 26.8156C162.528 26.8156 160.677 27.2639 159.336 27.9056C158.222 28.4418 156.424 29.2945 154.701 31.5713C154.662 31.6108 154.622 31.6504 154.587 31.6856C153.364 33.0129 151.452 34.5821 148.76 34.5821C143.814 34.5821 142.393 29.3297 142.393 25.3036C142.393 24.9124 142.393 24.5652 143.178 24.5652H154.933C156.942 24.5652 156.841 23.484 156.841 22.895C156.841 20.0469 154.833 14.7945 148.028 14.7945C139.065 14.7945 137.548 23.3345 137.548 26.9694C137.548 30.3582 139.754 38.1642 147.835 38.1642H147.839ZM166.303 43.1616C166.303 45.2714 163.264 46.8449 161.357 46.8449C158.275 46.8449 158.371 45.3241 158.371 44.0978C158.371 41.6409 161.603 41.6409 165.865 41.6936C166.207 41.6936 166.307 41.8387 166.307 41.9881V43.166L166.303 43.1616ZM142.941 21.8665C143.38 20.148 144.555 17.2998 147.839 17.2998C150.729 17.2998 151.759 19.3129 151.759 20.5391C151.759 21.6687 151.513 22.5522 146.225 22.5522H143.481C142.797 22.5522 142.845 22.2093 142.941 21.8665Z" fill="black"/>
<path d="M112.682 10.4256C114.454 10.4256 115.879 8.99714 115.879 7.22144C115.879 5.44575 114.454 4.05684 112.682 4.05684C110.911 4.05684 109.486 5.48531 109.486 7.22144C109.486 8.95758 110.911 10.4256 112.682 10.4256Z" fill="black"/>
<path d="M31.5392 66.5225C31.5041 66.439 31.469 66.3511 31.4295 66.2676C31.3462 66.0786 31.2673 65.8852 31.184 65.6962C30.9998 65.2699 30.8157 64.8479 30.6271 64.4216C30.2939 63.67 29.9607 62.9184 29.6231 62.1712C27.6675 61.8284 25.7163 61.4724 23.7563 61.1427C23.4099 61.0856 23.0592 61.0284 22.7128 60.9713C22.5505 60.9449 22.3883 60.923 22.2261 60.901C22.1822 60.8966 22.1427 60.8878 22.0989 60.8834C21.7218 60.8395 21.3447 60.7999 20.9633 60.7691C21.7964 61.6833 22.6996 62.5228 23.6248 63.3404C24.471 64.0876 25.3348 64.8216 26.2074 65.5424C26.7204 65.9687 27.2334 66.3907 27.7552 66.8126C28.0226 67.028 28.2857 67.239 28.5532 67.45C28.6672 67.5379 28.7812 67.6258 28.8908 67.7181C28.9303 67.7488 28.9741 67.784 29.0136 67.8148C30.2676 68.7729 31.5479 69.7575 32.9554 70.4871C32.9423 70.4343 32.9335 70.386 32.9203 70.3333C32.5783 69.041 32.0609 67.7972 31.5479 66.5665C31.5392 66.5445 31.5348 66.5357 31.526 66.5181L31.5392 66.5225Z" fill="white"/>
<path d="M30.7587 40.7486C30.7061 40.7882 30.6535 40.8321 30.7587 40.7486Z" fill="white"/>
<path d="M19.7575 60.7647C19.7575 60.7647 19.7443 60.7647 19.7355 60.7691C19.7049 60.7911 19.7136 60.7955 19.7575 60.7647Z" fill="white"/>
<path d="M24.949 23.0401C24.699 23.4312 24.471 23.84 24.2649 24.2575C24.2123 24.3674 24.1597 24.4817 24.1071 24.5916C24.0939 24.6136 24.0501 24.7234 24.0194 24.7894C24.0019 24.8289 23.9887 24.8685 23.9799 24.8905C23.9405 24.996 23.901 25.097 23.8616 25.2025C23.6993 25.6508 23.559 26.108 23.445 26.5695C23.331 27.0134 23.2389 27.4661 23.1644 27.9188C23.1425 28.0595 23.1205 28.2001 23.0986 28.3408C23.0986 28.3583 23.0986 28.3715 23.0942 28.3979C23.0679 28.6352 23.0416 28.8726 23.0241 29.1099C22.9408 30.1252 22.932 31.1449 22.9802 32.1603C23.0022 32.6921 23.0416 33.2195 23.0942 33.7469C23.1205 34.0239 23.1512 34.3008 23.1863 34.5777C23.1995 34.6744 23.217 34.8194 23.2214 34.837C23.2345 34.9161 23.2433 34.9996 23.2565 35.0787C23.4187 36.1951 23.6335 37.3027 23.8791 38.4059C24.3088 40.3135 24.8481 42.1947 25.4488 44.0583C26.4485 43.5572 27.4263 43.0122 28.369 42.4144C28.9653 42.0364 29.5529 41.6409 30.1229 41.2233C30.2808 41.109 30.4342 40.9948 30.5921 40.8761C30.6535 40.8277 30.7192 40.7794 30.7806 40.731C30.7894 40.7223 30.7982 40.7179 30.8069 40.7091C31.0788 40.4937 31.3462 40.2783 31.6137 40.0542C32.723 39.1224 33.7622 38.1115 34.7312 37.0346C34.9855 36.7533 35.2311 36.4632 35.4722 36.1731C35.5862 36.0369 35.7003 35.8962 35.8143 35.7556C35.8537 35.7028 36.0159 35.4963 36.0642 35.4347C36.1036 35.382 36.1913 35.2633 36.2045 35.2501C36.2571 35.1754 36.3141 35.1051 36.3667 35.0304C36.4763 34.8853 36.5816 34.7359 36.6868 34.5864C36.8973 34.2876 37.1034 33.9843 37.3051 33.6766C38.5459 31.7779 39.6596 29.7824 40.6725 27.7562C41.5451 26.0113 42.2729 24.3498 42.878 22.4994C43.1279 21.7303 43.3516 20.9523 43.5313 20.1655C43.6146 19.8007 43.6892 19.4315 43.7506 19.0623C43.7725 18.9393 43.79 18.8118 43.8076 18.6887C43.8076 18.6711 43.8426 18.425 43.847 18.3591C43.9128 17.7393 43.9391 17.1152 43.9128 16.4955C43.8996 16.2318 43.8689 15.9724 43.847 15.7087C43.8821 16.1483 43.847 15.7571 43.8295 15.6384C43.8076 15.5197 43.7856 15.4055 43.7549 15.2868C43.6979 15.0362 43.6234 14.7945 43.5401 14.5484C43.5313 14.5176 43.5138 14.4824 43.4962 14.4473C43.4436 14.3418 43.3866 14.2583 43.4962 14.4473C43.5094 14.4693 43.5226 14.4912 43.5401 14.522C43.4875 14.4341 43.4524 14.3286 43.4086 14.2363C43.3121 14.0429 43.1981 13.8627 43.0841 13.6825C43.0709 13.6649 43.0665 13.6517 43.0578 13.6386C43.0183 13.5902 42.9789 13.5419 42.935 13.4935C42.7947 13.3397 42.6412 13.2078 42.4922 13.0672C42.4132 13.0188 42.3343 12.9617 42.2554 12.9133C42.1633 12.8562 42.0712 12.8078 41.9748 12.7595C41.966 12.7551 41.9397 12.7419 41.9134 12.7287C41.8564 12.7068 41.7555 12.6628 41.7292 12.6496C41.6371 12.6188 41.5451 12.5881 41.4486 12.5617C41.2425 12.5046 41.032 12.4738 40.826 12.4211C40.7207 12.4167 40.6111 12.4035 40.5059 12.3947C40.0455 12.3683 39.6026 12.4298 39.1466 12.4474C39.0984 12.4562 39.0502 12.465 38.9975 12.4738C38.8748 12.4958 38.752 12.5178 38.6292 12.5441C38.3749 12.5969 38.1206 12.6628 37.8707 12.7331C37.5901 12.8122 37.3138 12.9001 37.042 13.0012C36.906 13.0496 36.7745 13.0979 36.643 13.1507C36.6079 13.1639 36.415 13.243 36.3448 13.2693C36.2966 13.2913 36.2483 13.3133 36.2308 13.3177C36.1606 13.3485 36.0949 13.3792 36.0247 13.41C35.8844 13.4759 35.7485 13.5419 35.6082 13.6078C35.3232 13.7484 35.0425 13.8979 34.7619 14.0517C34.1481 14.3901 33.5517 14.7593 32.973 15.1505C32.6529 15.3659 32.3416 15.5857 32.0303 15.8142C31.8943 15.9153 31.7584 16.0164 31.6225 16.1219C31.6006 16.1395 31.3769 16.3197 31.3199 16.3636C30.6798 16.8823 30.0571 17.4229 29.4564 17.9855C28.1016 19.2513 26.8388 20.6183 25.6637 22.0555C25.554 22.1918 25.4488 22.328 25.3348 22.4599C25.3962 22.3852 25.4313 22.3456 25.4532 22.3236C25.4181 22.3632 25.348 22.4511 25.3173 22.495C25.1901 22.6708 25.063 22.8554 24.9446 23.0401H24.949Z" fill="white"/>
<path d="M0.88571 46.5636C1.3198 46.6867 1.75388 46.8009 2.19235 46.9064C2.78429 47.0471 3.38061 47.1657 3.97692 47.2712C4.29262 47.324 4.60394 47.3723 4.91964 47.4207C4.96348 47.4251 4.99418 47.4338 5.01171 47.4338C5.03364 47.4338 5.05118 47.4382 5.09064 47.4426C5.23972 47.4602 5.39318 47.4778 5.54226 47.4954C8.12047 47.7899 10.7294 47.7899 13.312 47.5305C13.654 47.4954 13.996 47.4558 14.338 47.4119C14.3511 47.4119 14.3599 47.4119 14.3687 47.4119C14.4301 47.4031 14.4914 47.3943 14.5528 47.3855C14.7151 47.3635 14.8773 47.3372 15.0351 47.3108C15.7016 47.2053 16.3681 47.0822 17.0302 46.9416C18.3894 46.6515 19.7355 46.2911 21.0553 45.8559C21.6254 45.6669 22.1866 45.4604 22.7478 45.245C21.6297 41.8299 20.7309 38.34 20.2749 34.7667C19.7487 30.6527 19.9153 26.2574 21.8621 22.5126C22.3927 21.4885 23.0855 20.5875 23.8221 19.704C24.984 18.3063 26.2249 16.979 27.5622 15.7483C29.7853 13.7001 32.2758 11.8409 35.0645 10.6454C37.1998 9.72675 39.5544 9.13339 41.8739 9.63006C43.9479 10.074 45.5088 11.5552 46.2805 13.5023C47.2145 15.8582 46.9075 18.6096 46.3507 21.0138C45.4343 24.974 43.5971 28.7407 41.5933 32.2526C39.8833 35.2501 37.9452 38.0719 35.481 40.5025C33.3807 42.5683 30.9867 44.3572 28.426 45.8032C27.7639 46.1768 27.0887 46.5284 26.4003 46.8581C27.0142 48.5722 27.6719 50.2688 28.3603 51.9522C28.483 52.2511 28.6058 52.5456 28.7286 52.8444C28.7812 52.9763 28.8382 53.1082 28.8908 53.24C28.9083 53.2796 28.9478 53.3719 28.9741 53.4422C29.189 53.952 29.4082 54.4619 29.6274 54.9718C30.0703 55.9959 30.5175 57.0156 30.9692 58.0353C31.1972 58.5451 31.4252 59.055 31.6575 59.5648C32.6923 59.7362 33.7271 59.9033 34.7619 60.0527C35.0382 60.0923 35.3144 60.1318 35.5906 60.1714C35.7222 60.1889 35.8537 60.2065 35.9853 60.2241C36.0072 60.2241 36.0159 60.2241 36.0291 60.2285C36.0466 60.2285 36.0598 60.2285 36.0905 60.2373C36.6473 60.312 37.2042 60.3823 37.7611 60.4439C38.9142 60.5801 40.0718 60.6944 41.2294 60.7911C43.6541 60.9889 46.092 61.09 48.5255 61.0548C49.7795 61.0372 51.0292 60.9845 52.2788 60.8922C52.9277 60.8438 53.5767 60.7867 54.2212 60.7164C54.5457 60.6812 54.8702 60.6417 55.1946 60.6021C55.2429 60.5977 55.2736 60.5933 55.2955 60.5889C55.3174 60.5889 55.3393 60.5845 55.3744 60.5757C55.5279 60.5538 55.6813 60.5318 55.8304 60.5098C58.356 60.1318 60.8597 59.5604 63.2844 58.7517C63.8939 58.5451 64.499 58.3297 65.0997 58.0924C65.2619 58.0265 65.4285 57.9605 65.5908 57.8946C65.6565 57.8682 65.7267 57.8375 65.7925 57.8111C66.0775 57.688 66.3625 57.5606 66.6431 57.4331C67.8313 56.8837 68.9889 56.2728 70.107 55.5915C70.6726 55.2443 71.2295 54.8838 71.7776 54.5015C72.0801 54.2905 72.3739 54.0795 72.6677 53.8597C72.7203 53.8202 72.9088 53.6751 72.9351 53.6576C73.0228 53.5872 73.1105 53.5213 73.1982 53.451C74.2988 52.5719 75.3423 51.6182 76.3157 50.5984C76.7981 50.0974 77.2672 49.5787 77.7189 49.0425C77.9775 48.7349 78.2319 48.4272 78.4774 48.1107C78.5256 48.0536 78.5695 47.992 78.6177 47.9349C78.6309 47.9173 78.644 47.8997 78.6616 47.8734C78.7712 47.7283 78.8808 47.5833 78.986 47.4338C79.3894 46.8844 79.7709 46.3218 80.1436 45.7549C80.126 44.5505 80.0559 43.3331 79.9244 42.1024C77.0348 15.5725 67.4148 4.95787 45.2764 1.09882C24.3439 -2.54926 -4.27508 26.1871 0.534934 45.2406C0.644551 45.6801 0.762938 46.1241 0.88571 46.5636ZM55.3919 35.4919C57.3651 35.4919 58.9567 37.083 58.9567 39.0213C58.9567 40.9596 57.3651 42.5946 55.3919 42.5946C53.4188 42.5946 51.8272 41.0036 51.8272 39.0213C51.8272 37.039 53.4144 35.4919 55.3919 35.4919Z" fill="white"/>
<path d="M78.7142 52.3522C74.882 56.453 70.0588 59.4637 64.7927 61.3449C59.8643 63.103 54.5939 63.8502 49.3805 63.9865C44.4872 64.1139 39.607 63.6832 34.7663 63.0019C34.2095 62.9228 33.657 62.8349 33.1045 62.747C33.8938 64.5183 34.6567 66.3072 35.3056 68.1268C35.6652 69.1377 36.0423 70.2453 36.0423 71.331C36.0423 72.5968 35.2574 73.7352 33.9113 73.7748C32.78 73.8099 31.6795 73.1814 30.7412 72.6144C28.9873 71.5463 27.3693 70.2497 25.7733 68.9663C24.0194 67.5554 22.2831 66.1094 20.6256 64.5842C19.6391 63.6744 18.6394 62.7294 17.8852 61.613C17.2757 60.7076 16.982 59.433 17.837 58.5671C18.5078 57.8814 19.5032 57.7759 20.4152 57.7935C23.0109 57.8507 25.633 58.4704 28.1893 58.9539C26.6897 55.5651 25.234 52.1588 23.9449 48.6821C23.8659 48.4623 23.787 48.2426 23.7081 48.0228C20.003 49.4601 16.0699 50.3084 12.1062 50.5809C8.71679 50.8094 5.22218 50.6116 1.87227 49.86C8.29147 69.5377 23.4012 86.4244 44.0619 84.2311C62.254 82.3016 77.4821 68.8784 79.8454 51.0819C79.4771 51.5171 79.1044 51.9434 78.7186 52.3566L78.7142 52.3522Z" fill="white"/>
<path d="M33.714 70.8123C33.714 70.8123 33.7534 70.8255 33.771 70.8299C33.8148 70.8343 33.8543 70.8431 33.8806 70.8387C33.9595 70.8343 33.9332 70.8387 33.8762 70.8563C34.0472 70.8827 33.9025 70.7552 33.714 70.8123Z" fill="white"/>
<path d="M20.1828 59.7318C20.1828 59.7318 20.1828 59.6967 20.1828 59.6835C20.1565 59.6483 20.1433 59.6527 20.1828 59.7318Z" fill="white"/>
<path d="M20.231 59.8153C20.231 59.8153 20.2442 59.8373 20.2486 59.8461C20.2354 59.789 20.2135 59.7362 20.1959 59.7055C20.1959 59.7143 20.1959 59.7187 20.2047 59.7362C20.2091 59.7626 20.2222 59.789 20.231 59.8153Z" fill="white"/>
</g>
<defs>
<clipPath id="clip0_12496_9675">
<rect width="259" height="89" fill="white"/>
</clipPath>
</defs>
</svg>
