<svg width="583" height="203" viewBox="0 0 583 203" fill="none" xmlns="http://www.w3.org/2000/svg">
<g clip-path="url(#clip0_18110_2)">
<path d="M163.85 116.28C161.87 116.1 159.74 116.03 157.42 116.1C141.49 116.62 126.11 126.46 113.57 142.09C111.79 144.3 110.17 146.28 108.64 148.08C95.72 164.25 74.9 181.49 45.36 182.46C35.34 182.79 26.44 181.52 18.55 179.07C28.1 188.5 39.42 196.08 52.74 200.32C97.39 214.53 146.83 162.82 163.86 116.28H163.85Z" fill="white"/>
<path d="M3.32998 57.86C2.65998 60.54 2.35998 63.2 7.66998 63.03L28.9 62.34C69.84 61 71.52 54.12 71.23 45.4C70.92 35.92 62.45 20.64 40.09 21.37C14.68 22.2 6.29998 44.48 3.32998 57.86Z" fill="white"/>
<path d="M111.24 62.3C111.39 66.85 112.42 75.16 96.88 75.67L5.90999 78.64C-0.160013 78.84 -0.0700128 81.5 0.0199872 84.53C1.02999 115.61 13.35 155.81 51.64 154.56C72.49 153.88 86.88 141.27 96.01 130.72C96.26 130.42 96.55 130.11 96.85 129.8C109.6 111.79 123.3 104.74 131.8 100.32C141.35 95.36 154.38 91.61 169.36 90.71C171.2 42.73 126.36 -11.72 52.72 2.22001C52.59 2.25001 52.46 2.27001 52.32 2.30001C96.11 6.24001 110.57 41.99 111.23 62.31L111.24 62.3Z" fill="white"/>
<path d="M274.77 170.47C269.85 170.47 264.94 170.36 260.03 170.36C254.22 170.36 253.55 168.35 253.55 165.78C253.55 164.22 254.11 162.99 255.34 162.09C255.79 161.64 256.79 161.53 257.68 161.53C258.91 161.64 260.25 161.64 261.7 161.64C278.79 161.64 283.59 150.69 283.59 143.43C283.59 141.2 283.03 137.73 281.13 134.83C280.8 134.27 281.46 133.71 282.58 133.71H288.84C291.3 133.71 291.86 132.59 291.86 131.36C291.75 129.35 290.18 128.9 288.51 129.01C287.51 129.12 285.05 129.12 284.04 129.12C274.32 129.12 271.08 126.1 263.37 126.1C252.09 126.1 241.03 131.57 241.03 144.19C241.03 149.33 242.59 154.35 248.85 158.26C249.52 158.71 249.63 159.49 248.96 159.94C247.4 160.95 245.5 162.06 243.82 163.07C243.04 163.52 242.48 164.19 242.37 164.75C241.7 168.66 242.59 173.02 247.84 175.92C248.73 176.37 248.96 177.26 248.4 177.93C246.28 180.05 241.59 182.73 239.24 184.19C238.23 184.86 237.68 185.75 237.68 186.65C238.13 195.59 243.6 202.96 260.91 202.96C280.35 202.96 292.07 192.91 292.07 183.64C292.07 177.72 288.49 170.46 274.76 170.46L274.77 170.47ZM262.04 131.15C270.53 131.15 272.09 140.98 272.09 144.55C272.09 147.9 271.53 156.5 262.37 156.5C253.88 156.5 253.1 146 253.1 143.1C253.1 140.42 254.55 131.15 262.04 131.15ZM262.71 197.05C252.1 197.05 248.41 193.03 248.41 187.22C248.41 182.64 253.43 178.84 257.79 178.84H266.5C277.22 178.84 281.24 181.85 281.24 187.11C281.24 194.59 274.43 197.05 262.7 197.05H262.71Z" fill="black"/>
<path d="M329.61 126.02C324.92 126.02 319.33 129.71 316.54 133.28C316.21 133.62 315.09 133.62 315.2 132.5C315.31 130.82 315.42 129.93 315.53 128.14C315.64 127.47 314.97 126.69 313.74 126.35C312.84 126.01 311.62 125.9 310.5 126.01C308.04 126.46 295.87 129.7 295.87 132.93C295.87 133.94 297.32 134.83 299 135.05C303.91 135.83 303.69 139.18 303.69 142.76V165.43C303.69 169.45 302.46 171.8 298.44 172.24C297.21 172.35 295.43 173.02 295.43 175.14C295.43 176.03 296.1 177.38 299.11 177.26C303.69 177.15 309.61 177.26 314.19 177.15C316.76 177.15 320.33 177.37 322.9 177.37C325.8 177.37 327.26 176.03 326.7 174.35C326.36 173.23 325.36 172.34 323.12 172.34C316.42 172 315.08 170.66 315.08 165.41V143.41C315.08 139.39 318.21 134.48 323.9 134.48C327.36 134.48 327.48 138.28 331.83 138.28C336.18 138.28 338.19 134.48 338.19 132.25C338.19 129.68 336.74 126 329.59 126L329.61 126.02Z" fill="black"/>
<path d="M365.24 126.02C344.69 126.02 338.54 144.78 338.54 152.83C338.54 161.99 345.13 179.19 366.91 179.19C387.35 179.19 394.05 160.43 394.05 152.38C394.05 142.89 387.79 126.02 365.23 126.02H365.24ZM368.81 174.16C356.08 174.49 351.72 157.74 351.16 152.15C350.82 147.57 350.94 131.37 363.78 131.04C376.74 130.7 380.76 147.57 381.32 153.16C381.77 157.63 381.32 173.71 368.81 174.16Z" fill="black"/>
<path d="M479.73 129.03H464.32C462.98 128.92 460.74 129.59 460.74 131.82C460.74 133.05 461.75 133.94 463.98 134.28C467.33 134.95 467.11 137.41 465.99 139.86L456.72 163.2C456.61 163.54 455.83 163.54 455.72 163.2L446.9 140.19C446.45 138.51 445.89 137.06 446.68 135.95C447.13 135.39 447.91 134.83 449.36 134.5C451.26 134.05 453.05 132.94 453.16 131.93C453.27 130.03 452.04 128.91 449.25 129.03H431.04C428.58 128.92 427.36 129.7 426.57 130.93C425.67 132.38 427.02 133.95 429.47 134.5C434.05 135.51 434.94 138.3 434.05 140.98L425.34 163.32C425.23 163.66 424.33 163.66 424.22 163.32L414.5 138.64C414.16 137.52 414.05 136.63 414.28 135.96C414.5 135.18 415.29 134.62 416.96 134.28C418.97 133.83 420.65 132.94 420.76 131.82C420.98 130.03 419.64 128.92 416.96 129.03H398.53C395.85 129.03 394.51 130.04 394.06 131.49C393.73 132.72 395.18 133.84 397.3 134.39C401.99 135.62 403.44 139.53 404.33 141.99L419.08 177.62C419.64 178.85 421.54 179.18 422.65 179.18C424.32 179.18 425.78 178.62 426.22 177.73L438.51 150.59C438.62 150.26 439.4 150.26 439.51 150.59L451.35 177.73C451.69 178.62 453.14 179.18 454.81 179.18C455.82 179.18 457.72 178.85 458.16 177.73L473.57 141.32C475.02 137.86 476.25 135.62 480.05 134.39C481.84 133.94 483.07 132.94 483.18 131.93C483.4 130.14 481.95 129.03 479.72 129.03H479.73Z" fill="black"/>
<path d="M520.49 167.57C520.16 167.46 519.82 167.35 519.37 167.35C518.36 167.35 517.25 167.91 516.46 168.47C514.11 170.03 510.54 172.04 508.19 172.04C503.61 172.04 503.95 164.56 503.95 162.88V134.62C503.95 134.06 503.95 133.61 505.07 133.61H517.58C519.26 133.61 520.71 133.16 520.93 131.26C520.93 130.03 519.93 129.03 517.58 129.03H505.07C503.95 129.03 503.95 128.47 503.95 127.91V118.19C503.95 116.74 502.05 116.4 500.93 116.4C499.7 116.4 498.25 116.62 497.91 118.08C496.79 122.32 493.78 126.9 486.52 129.36C485.4 129.81 485.18 130.48 485.18 131.26C485.18 132.6 486.52 133.61 488.87 133.61H491.66C492.55 133.61 492.67 134.06 492.67 134.62V168.13C492.67 172.26 494.68 179.19 504.95 179.19C511.54 179.19 518.02 173.72 521.7 170.26C522.37 169.59 521.7 168.14 520.47 167.58L520.49 167.57Z" fill="black"/>
<path d="M399.55 112.98C402.79 112.87 405.58 112.76 410.94 112.76C416.3 112.76 418.65 112.87 422.22 112.87C424.9 112.87 426.02 111.64 426.02 110.3C426.02 109.07 425.24 107.95 422.89 107.84C417.08 107.39 415.74 105.94 415.74 102.03V70.64C415.74 69.75 415.74 69.08 417.41 69.08H427.02C428.92 69.08 429.81 68.74 430.04 66.85C430.04 65.62 429.26 64.62 427.02 64.62H417.41C415.74 64.62 415.74 63.95 415.74 63.06V47.2C415.74 44.85 416.86 35.92 421.77 35.92C424.78 35.92 425.12 38.27 428.92 38.27C433.39 38.27 435.62 35.48 435.62 33.47C435.62 30.79 433.83 28 428.02 28C419.87 28 411.27 36.94 409.48 40.18C405.9 46.55 404.34 55.04 404.34 58.94C404.34 61.73 402.33 63.63 398.2 64.75C396.75 65.09 396.52 65.87 396.52 66.76C396.63 68.66 397.64 69.11 399.54 69.11H402.55C404.11 69.11 404.34 69.78 404.34 70.67V101.83C404.34 105.29 403 107.19 398.31 107.75C396.75 107.97 395.41 108.53 395.3 110.32C395.3 111.77 396.75 113 399.55 113V112.98Z" fill="black"/>
<path d="M432.28 66.74C432.28 68.08 433.62 69.09 435.97 69.09H438.76C439.65 69.09 439.77 69.54 439.77 70.1V103.61C439.77 107.74 441.78 114.67 452.06 114.67C458.65 114.67 465.13 109.2 468.81 105.74C469.48 105.07 468.81 103.62 467.58 103.06C467.25 102.95 466.91 102.84 466.46 102.84C465.45 102.84 464.34 103.4 463.55 103.96C461.21 105.52 457.63 107.53 455.29 107.53C450.71 107.53 451.05 100.05 451.05 98.37V70.11C451.05 69.55 451.05 69.1 452.17 69.1H464.68C466.36 69.1 467.81 68.65 468.03 66.75C468.03 65.52 467.02 64.52 464.68 64.52H452.17C451.05 64.52 451.05 63.96 451.05 63.4V53.68C451.05 52.23 449.15 51.89 448.03 51.89C446.8 51.89 445.35 52.11 445.01 53.57C443.89 57.81 440.88 62.39 433.62 64.85C432.5 65.3 432.28 65.97 432.28 66.75V66.74Z" fill="black"/>
<path d="M496.05 114.65C507 114.65 514.14 106.94 517.61 101.69C518.17 100.8 517.5 99.01 515.49 98.56C513.81 98 512.25 99.01 511.47 99.9C508.68 102.92 504.32 106.49 498.18 106.49C486.9 106.49 483.66 94.54 483.66 85.38C483.66 84.49 483.66 83.7 485.45 83.7H512.26C516.84 83.7 516.62 81.24 516.62 79.9C516.62 73.42 512.04 61.47 496.51 61.47C476.07 61.47 472.61 80.9 472.61 89.17C472.61 96.88 477.63 114.64 496.07 114.64L496.05 114.65ZM484.88 77.57C485.89 73.66 488.57 67.18 496.05 67.18C502.64 67.18 504.99 71.76 504.99 74.55C504.99 77.12 504.43 79.13 492.37 79.13H486.11C484.55 79.13 484.66 78.35 484.88 77.57Z" fill="black"/>
<path d="M579.24 172.15C574.44 171.37 574.33 168.69 574.33 165.45V143.67C574.33 138.2 571.65 126.02 558.13 126.02C552.21 126.02 547.18 128.59 543.28 132.83C542.94 133.16 541.94 133.16 541.94 132.05L542.23 101.41C542.25 101.24 542.3 101.07 542.3 100.91V93.83L542.45 77.34C543.14 73.72 546.15 69.97 551.12 69.97C554.58 69.97 554.7 73.77 559.05 73.77C563.4 73.77 565.41 69.97 565.41 67.74C565.41 65.17 563.96 61.49 556.81 61.49C552.12 61.49 546.53 65.18 543.74 68.75C543.41 69.09 542.29 69.09 542.4 67.97C542.51 66.29 542.62 65.4 542.73 63.61C542.84 62.94 542.17 62.16 540.94 61.82C540.05 61.48 538.82 61.37 537.7 61.48C535.24 61.93 523.07 65.17 523.07 68.4C523.07 69.41 524.52 70.3 526.2 70.52C531.11 71.3 530.89 74.65 530.89 78.23V86.9C530.78 96.7 530.64 106.29 530.64 108.36V165.44C530.64 168.46 529.75 171.58 525.5 172.25C523.49 172.58 523.04 173.59 523.04 174.71C523.37 176.95 525.5 177.39 527.51 177.39C530.19 177.28 533.65 177.28 536.33 177.28C539.01 177.28 542.7 177.28 545.49 177.39C548.28 177.5 549.74 176.16 549.74 174.71C549.74 173.48 549.07 172.59 546.83 172.25C542.92 171.58 541.92 168.9 541.92 165.44V143.44C541.92 142.66 542.25 141.88 542.92 141.21C545.26 138.53 549.96 134.51 554.31 134.51C564.47 134.51 562.91 146.46 562.91 150.37V165.45C562.91 168.8 561.9 171.82 558.33 172.26C556.21 172.48 555.31 173.6 555.31 174.83C555.31 176.28 556.31 177.51 559.22 177.4C561.9 177.29 565.92 177.29 568.6 177.29C571.28 177.29 574.96 177.29 577.76 177.4C580.55 177.51 582 176.28 582 174.83C582 173.6 581.33 172.6 579.21 172.15H579.24Z" fill="black"/>
<path d="M228.89 80.28C224.98 79.61 224.09 76.93 224.09 73.47V13.26C224.09 9.46001 224.31 6.34001 224.65 2.65001C224.76 1.98001 224.09 1.20001 222.86 0.860007C221.97 0.520007 220.74 0.410007 219.62 0.520007C217.05 0.970007 204.99 4.09001 204.99 7.56001C204.99 8.45001 206.22 9.35001 208 9.57001C213.03 10.24 212.8 12.81 212.8 16.38V73.46C212.8 76.48 211.79 79.6 207.55 80.27C205.54 80.61 205.21 81.61 205.21 82.73C205.21 84.29 206.66 85.52 209.57 85.41C212.25 85.3 215.82 85.3 218.5 85.3C221.18 85.3 224.76 85.3 227.44 85.41C229.23 85.41 231.69 84.96 231.91 82.73C231.91 81.5 231.02 80.61 228.89 80.27V80.28Z" fill="black"/>
<path d="M249.88 85.3C252.56 85.3 256.36 85.3 259.15 85.41C261.94 85.52 263.28 84.18 263.28 82.73C263.28 81.5 262.61 80.61 260.49 80.27C256.58 79.6 255.46 76.92 255.46 73.46V46.88C255.46 43.08 255.68 39.95 256.02 36.27C256.13 35.49 255.46 34.82 254.23 34.37C253.34 34.04 252.11 33.92 250.99 34.15C248.53 34.6 236.36 37.72 236.36 41.07C236.36 42.08 237.59 42.97 239.38 43.19C244.4 43.86 244.18 46.43 244.18 49.89V73.46C244.18 76.48 243.29 79.6 239.04 80.27C237.03 80.61 236.58 81.61 236.58 82.73C236.58 84.29 238.14 85.52 241.05 85.41C243.73 85.3 247.19 85.3 249.87 85.3H249.88Z" fill="black"/>
<path d="M298.02 82.96C298.02 81.73 297.24 80.61 294.89 80.5C289.08 80.05 287.74 78.6 287.74 74.69V43.3C287.74 42.41 287.74 41.74 289.42 41.74H299.02C300.92 41.74 301.81 41.41 302.04 39.51C302.04 38.28 301.26 37.28 299.02 37.28H289.42C287.74 37.28 287.74 36.61 287.74 35.72V19.86C287.74 17.51 288.86 8.58 293.77 8.58C296.78 8.58 297.12 10.93 300.92 10.93C305.39 10.93 307.62 8.14 307.62 6.13C307.62 3.45 305.83 0.660004 300.03 0.660004C291.88 0.660004 283.28 9.6 281.49 12.84C277.92 19.21 276.35 27.7 276.35 31.6C276.35 34.39 274.34 36.29 270.21 37.41C268.76 37.74 268.53 38.53 268.53 39.42C268.64 41.32 269.65 41.77 271.55 41.77H274.57C276.13 41.77 276.36 42.44 276.36 43.33V74.49C276.36 77.95 275.02 79.85 270.33 80.41C268.77 80.63 267.42 81.19 267.32 82.98C267.32 84.43 268.77 85.66 271.56 85.66C274.8 85.55 277.59 85.44 282.95 85.44C288.31 85.44 290.66 85.55 294.23 85.55C296.91 85.55 298.03 84.32 298.03 82.98L298.02 82.96Z" fill="black"/>
<path d="M328.51 87.31C337.22 87.31 343.51 82.44 347.47 77.8C347.94 77.28 348.44 76.72 348.98 76.08C352.82 71.6 357.44 68.85 362.14 68.85C370.4 68.85 370.63 74.43 370.63 77.56V89.96C370.63 90.29 370.41 90.63 369.62 90.63C350.97 90.74 341.25 92.31 341.25 102.02C341.25 106.15 344.6 114.64 354.54 114.64C360.91 114.64 365.82 112.74 369.17 110.06C369.73 109.61 371.07 109.73 371.29 110.28C372.29 112.4 374.53 114.64 378.66 114.64C385.02 114.64 391.62 110.73 394.74 107.05C395.41 106.38 394.96 104.93 393.51 104.37C393.17 104.15 392.73 104.15 392.39 104.15C391.38 104.15 390.6 104.71 389.93 105.27C388.92 106.05 387.58 106.72 385.8 106.72C382.67 106.72 382 104.6 382 101.25V73.89C382 68.86 378.32 61.49 366.81 61.49C362.01 61.49 357.79 62.51 354.73 63.97C352.19 65.19 348.09 67.13 344.16 72.31C344.07 72.4 343.98 72.49 343.9 72.57C341.11 75.59 336.75 79.16 330.61 79.16C319.33 79.16 316.09 67.21 316.09 58.05C316.09 57.16 316.09 56.37 317.88 56.37H344.69C349.27 56.37 349.04 53.91 349.04 52.57C349.04 46.09 344.46 34.14 328.94 34.14C308.5 34.14 305.04 53.57 305.04 61.84C305.04 69.55 310.07 87.31 328.5 87.31H328.51ZM370.62 98.68C370.62 103.48 363.69 107.06 359.34 107.06C352.31 107.06 352.53 103.6 352.53 100.81C352.53 95.22 359.9 95.22 369.62 95.34C370.4 95.34 370.63 95.67 370.63 96.01V98.69L370.62 98.68ZM317.34 50.23C318.34 46.32 321.02 39.84 328.51 39.84C335.1 39.84 337.45 44.42 337.45 47.21C337.45 49.78 336.89 51.79 324.83 51.79H318.57C317.01 51.79 317.12 51.01 317.34 50.23Z" fill="black"/>
<path d="M248.33 24.21C252.37 24.21 255.62 20.96 255.62 16.92C255.62 12.88 252.37 9.72 248.33 9.72C244.29 9.72 241.04 12.97 241.04 16.92C241.04 20.87 244.29 24.21 248.33 24.21Z" fill="black"/>
</g>
<defs>
<clipPath id="clip0_18110_2">
<rect width="582.03" height="202.98" fill="white"/>
</clipPath>
</defs>
</svg>
